PathFileType	4	(X/Y/Z)	Kaydara	
DataRate	CameraRate	NumFrames	NumMarkers	Units	OrigDataRate	OrigDataStartFrame	OrigNumFrames	
240.00	240.00	4	72	mm	240.00	270	359	
Frame#	Time	Hips			RightUpLeg			RightLeg			RightFoot			RightFoot_End			LeftUpLeg			LeftLeg			LeftFoot			LeftFoot_End			Spine			Spine1			Spine2			Spine3			Neck			Head			Head_End			RightShoulder			RightArm			RightForeArm			RightHand			RightHandThumb1			RightHandThumb2			RightHandThumb3			RightHandThumb3_End			RightInHandIndex			RightHandIndex1			RightHandIndex2			RightHandIndex3			RightHandIndex3_End			RightInHandMiddle			RightHandMiddle1			RightHandMiddle2			RightHandMiddle3			RightHandMiddle3_End			RightInHandRing			RightHandRing1			RightHandRing2			RightHandRing3			RightHandRing3_End			RightInHandPinky			RightHandPinky1			RightHandPinky2			RightHandPinky3			RightHandPinky3_End			LeftShoulder			LeftArm			LeftForeArm			LeftHand			LeftHandThumb1			LeftHandThumb2			LeftHandThumb3			LeftHandThumb3_End			LeftInHandIndex			LeftHandIndex1			LeftHandIndex2			LeftHandIndex3			LeftHandIndex3_End			LeftInHandMiddle			LeftHandMiddle1			LeftHandMiddle2			LeftHandMiddle3			LeftHandMiddle3_End			LeftInHandRing			LeftHandRing1			LeftHandRing2			LeftHandRing3			LeftHandRing3_End			LeftInHandPinky			LeftHandPinky1			LeftHandPinky2			LeftHandPinky3			LeftHandPinky3_End			
		X1	Y1	Z1	X2	Y2	Z2	X3	Y3	Z3	X4	Y4	Z4	X5	Y5	Z5	X6	Y6	Z6	X7	Y7	Z7	X8	Y8	Z8	X9	Y9	Z9	X10	Y10	Z10	X11	Y11	Z11	X12	Y12	Z12	X13	Y13	Z13	X14	Y14	Z14	X15	Y15	Z15	X16	Y16	Z16	X17	Y17	Z17	X18	Y18	Z18	X19	Y19	Z19	X20	Y20	Z20	X21	Y21	Z21	X22	Y22	Z22	X23	Y23	Z23	X24	Y24	Z24	X25	Y25	Z25	X26	Y26	Z26	X27	Y27	Z27	X28	Y28	Z28	X29	Y29	Z29	X30	Y30	Z30	X31	Y31	Z31	X32	Y32	Z32	X33	Y33	Z33	X34	Y34	Z34	X35	Y35	Z35	X36	Y36	Z36	X37	Y37	Z37	X38	Y38	Z38	X39	Y39	Z39	X40	Y40	Z40	X41	Y41	Z41	X42	Y42	Z42	X43	Y43	Z43	X44	Y44	Z44	X45	Y45	Z45	X46	Y46	Z46	X47	Y47	Z47	X48	Y48	Z48	X49	Y49	Z49	X50	Y50	Z50	X51	Y51	Z51	X52	Y52	Z52	X53	Y53	Z53	X54	Y54	Z54	X55	Y55	Z55	X56	Y56	Z56	X57	Y57	Z57	X58	Y58	Z58	X59	Y59	Z59	X60	Y60	Z60	X61	Y61	Z61	X62	Y62	Z62	X63	Y63	Z63	X64	Y64	Z64	X65	Y65	Z65	X66	Y66	Z66	X67	Y67	Z67	X68	Y68	Z68	X69	Y69	Z69	X70	Y70	Z70	X71	Y71	Z71	X72	Y72	Z72	

270	1.121	1198.941	914.58397	126.699	1245.4691191897364	887.9441831774244	51.17153631549836	1148.3065745156844	493.639651880114	-51.49781823134168	1142.4108529809841	102.53301041107396	-129.43313828585647	991.309751699444	25.61724841927511	-41.16821081880984	1165.7001382561496	914.8319657169505	214.22925609371546	1074.299300613927	512.1768306340551	284.27733654722476	993.4098838641247	86.85143522758003	361.1155486956109	872.763747638424	3.755927051069613	238.32806593089558	1137.2384479526997	1033.4909123073496	76.55951455956927	1077.3270944323813	1089.4672742101684	24.475509281313578	1011.877880620137	1140.9123206615923	-33.02716385679948	945.2213354516684	1179.429722369986	-92.31814441753971	872.8303295560446	1220.9512847801966	-154.07249516881507	805.4781888602134	1259.4685884160176	-207.85032118371745	670.4308312857002	1341.2588739927592	-226.97969657746216	910.4174971192697	1196.1583268987094	-156.5056704099117	929.739123479689	1128.8640186506402	-241.95355027966005	926.9170355765023	943.1289628669502	-133.27061275073916	862.6869206697152	823.6872756045517	-141.38408634699383	862.5886115214989	836.8797870082105	-141.71460449601065	858.7100608668405	838.6688636790964	-141.37127475517684	855.9463290031701	836.3436670758526	-141.25774675165164	853.5886755494481	831.3502927148232	-141.27053397281423	862.7179981654617	825.4161157787258	-142.315275978955	860.9597338244625	814.2611643413301	-143.68344932429991	857.7960884949365	805.8182261278447	-143.9933961613461	854.951859645259	803.9704443598418	-143.62515870247302	852.0058633560973	804.7352590983356	-142.94200463296994	862.5164229416239	816.0592407571907	-142.57865851310726	860.6929886696199	800.1180967061459	-144.05577718103532	857.2174968229563	789.7058768443707	-144.42351824537062	853.77484663342	786.9011223830698	-143.99340382227575	850.545951714196	787.4581875143637	-143.25279204258908	862.437816404059	809.7146112308345	-142.73744320525952	860.7908282363733	789.8659711752426	-144.22134772823904	857.7404200960088	779.5901819071418	-144.56961286751	854.4084672161233	776.2472563150484	-144.16948035041395	851.3671620157868	776.4689504310655	-143.4800967446941	862.2489630415907	802.8722186904043	-142.82083316177915	860.6849154102588	780.3826542800738	-144.25925762024366	858.2162691683673	770.3680265015414	-144.57490863264186	855.7733549379745	767.06565600879	-144.30083510528598	853.0720235386055	766.7647770835407	-143.70038867436102	883.5400098490991	1218.619214279443	-109.61161719511992	855.1040492570527	1228.1249263280727	-5.280032327615218	908.9249580044772	1029.7495756818064	-31.00591183066556	885.6542922425612	860.5443900962997	-105.74639418332949	883.8870768002391	867.3097693350273	-112.05225517674806	888.5975095499393	856.6189821543879	-121.91994901568386	892.0004078773	846.0473824879906	-128.77126635327414	894.9421009791931	834.5596579939631	-134.46533077436348	883.5119448510542	857.5128395564266	-112.29984403920893	883.5177337653095	837.860986351081	-123.3537508076243	887.0061398121557	819.9649770487064	-132.4205554037707	890.9871862266799	810.5942585548513	-137.97078454668318	895.5047394606183	804.0220863988573	-142.50628701332872	884.0106748172758	849.49261885048	-111.92454742474209	884.2850977464891	825.9878638974715	-122.50279651829123	888.1617834024671	805.4599665022503	-132.312826889633	892.9984208336075	793.674787093886	-138.96883033054291	897.9578139281656	786.2504108451406	-143.91197785415488	884.3283077047696	844.346318024325	-111.36542266121299	884.748800345652	818.8681433300559	-120.32550375741268	888.1993702433621	799.9909188997958	-128.77392004611576	892.9027478620515	788.100075516466	-135.1399624924245	897.5838620593158	780.8713948839336	-139.7620907769818	884.966612086853	838.8385032976503	-110.49443087264272	885.629776774209	812.130258018867	-118.13928000583807	888.5030596867289	795.588275796274	-124.70625841697843	891.9870190768986	786.2253393554395	-129.25381184207393	896.164403059457	779.4249752571891	-133.29309015819226
271	1.125	1198.941	914.58397	126.699	1245.3212861092827	887.7804675592577	51.13742600432983	1148.1523004300989	493.494721448961	-51.59770970284765	1142.4938546771687	102.38617794033883	-129.54560152753677	991.3952714199894	25.467075150752546	-41.27925965215157	1165.8338576218011	914.9961193893712	214.2803584282997	1074.431707259835	512.334516295801	284.2896821357607	993.5137588590135	87.00154120273882	361.05276555960916	872.8734518158724	3.8942885918107457	238.26750002368328	1137.3080389905938	1033.4967444636404	76.4858369024937	1077.3962909330987	1089.4556830687109	24.382492205745606	1011.959394950508	1140.9096759271508	-33.12615949882025	945.290605249092	1179.424845179878	-92.40555803985728	872.888572785483	1220.942244642771	-154.1504562959472	805.5309540454214	1259.4580040357112	-207.92320647978815	670.5254331069518	1341.2880487051852	-227.1641675968093	910.4088603132421	1196.0451779305422	-156.5775380794741	929.3376573013559	1128.2836026867	-241.78789854715717	925.2165722331303	943.8736677102802	-130.7962979502335	861.3184757907632	825.032347602219	-138.63045903040864	860.018363744503	837.4632051374942	-137.74890072428963	855.824401679874	839.1685606704709	-135.68093141469606	852.9599095896435	836.8929894217334	-134.336327542291	850.6199836530502	832.0332807773016	-133.2971118683248	860.3935934732599	826.2718422865847	-138.1503163614743	857.9190514849099	814.9627049530111	-137.16518950249676	854.6314689253114	806.6509642399311	-135.73273289384775	851.8745013396561	804.9397401523337	-134.4308093306981	849.1115607079054	805.8546545564882	-133.0757354829378	860.5581387116185	817.2251825641173	-138.40893203981994	858.2339871516706	801.301368117675	-137.58817939442463	854.6743707974425	791.0740573450748	-136.06146848374286	851.3615175201571	788.454057636639	-134.50820564178892	848.344842554794	789.1851098375075	-133.03399311715955	860.7533075782972	811.1019021528239	-138.62480166411572	858.8859682565493	791.4558356192156	-138.10007315928246	855.8152720208932	781.3838557436345	-136.8077829004443	852.6366940728386	778.2417983887823	-135.32992731438156	849.8082823474055	778.6378082149787	-133.95345622815407	860.9256965528907	804.5328633140603	-138.8390164406568	859.3713864252096	782.3917087587628	-138.51637763642836	856.9702572642259	772.6059361314132	-137.5436900277598	854.6797331825633	769.4818395037381	-136.49579110735377	852.1903031175518	769.353663217558	-135.29375554164096	883.6754706569016	1218.7196140440835	-109.70379917855585	855.4849743387482	1228.8888257725982	-5.333212030472322	908.7917003720893	1030.201505290661	-29.842668359345865	884.4210051488167	860.3692666894453	-102.99628830686733	882.7073950855968	867.2333219052068	-109.04344261255382	887.1364164681974	856.5248868821895	-118.67584609859406	890.3105626240795	845.9256181645401	-125.38364037638298	893.0335119055002	834.4016412914785	-130.97546260575768	882.2432333239815	857.3984633040021	-109.34038334035614	881.9713253842841	837.7468670828138	-120.14898675903636	885.1406805982308	819.8072274929815	-129.04413743172572	888.9025645032275	810.3978732412521	-134.48959435738436	893.224697865255	803.7859463581378	-138.93968892369753	882.6565097229847	849.3342901085144	-109.02888955389344	882.6138811224315	825.8060033031472	-119.40239179267655	886.131889037854	805.2246605114412	-129.0343321092509	890.6990723460457	793.3900541182684	-135.568349413678	895.4421784319549	785.9208119266607	-140.42019606874553	882.9218549109803	844.1572712428183	-108.52120480108721	883.0157796898216	818.6323533798841	-117.3427145425609	886.1434519745909	799.7025845835472	-125.64564341780056	890.5814517424327	787.7609017983917	-131.89919868214147	895.056614246345	780.48854177448	-136.4379197009076	883.5000168541479	838.6113244496958	-107.71586002955058	883.82986365391	811.8378683353491	-115.2743168094059	886.4299589106183	795.2447315498488	-121.74059891782665	889.7132889553932	785.840315513948	-126.21373860777744	893.704158614217	778.9987316243621	-130.18353362657484
272	1.129	1198.941	914.58397	126.699	1245.209810565936	887.6493760330242	51.115286537542694	1148.0659707956063	493.3905564296715	-51.747387052921674	1142.570624873235	102.2821472285584	-129.70780070646828	991.4715395543533	25.36447628540071	-41.441068995384775	1165.9321298247123	915.1270798120127	214.31701651101827	1074.5262156234492	512.4599406436155	284.2897541622791	993.6275665327266	87.11659227456862	361.0126741848047	872.9976254284355	4.000842725423145	238.22297371062734	1137.3718993069265	1033.5036328696297	76.42244919265359	1077.4688081924512	1089.45742095738	24.302588674639264	1012.0348539332421	1140.9084935920946	-33.21304088556679	945.3591534354741	1179.427929366058	-92.4827076990531	872.9510984248474	1220.9469564092303	-154.22022604878447	805.5913003080577	1259.4647439121215	-207.98950854716358	670.6068183007815	1341.307884504693	-227.2992918553191	910.4183610166998	1195.9627684194597	-156.64565891614353	928.8183258203718	1127.5667442760491	-241.47859422823	923.7546126634218	944.1161131899123	-128.74824524084667	860.5351094093771	823.20164628124	-143.9732188150598	858.6404252160112	835.215578582047	-142.31716312698398	854.4256936033086	836.7905706781062	-139.21739778035575	851.6119339460583	834.4765099001008	-137.14663248000318	849.3700595173008	829.6294702154408	-135.49552072878137	859.1485177626939	824.1552350874961	-142.62965459737737	856.4105557123414	812.68201036497	-140.25561041662996	853.1868173608204	804.353348551158	-137.80591675597447	850.5725493359475	802.6551085073341	-135.95776639929113	847.9971981338024	803.5966461584776	-134.20870673605344	859.5112905375527	815.2611600695217	-142.91347401619166	857.0373622134591	799.2598092266219	-140.7516280666565	853.5747189403942	789.0348134662067	-138.12269734250205	850.4471329243243	786.4404750683179	-135.91414992634245	847.6420888746037	787.2054926553833	-134.01065642038805	859.8510867358343	809.2492039945155	-143.18276730385122	857.9688095475215	789.6282781150765	-141.50309826289129	855.0108386355529	779.5796927944549	-139.2601369191669	852.0259261207384	776.4737302085314	-137.15555165454398	849.4035882523743	776.9070604732723	-135.3779820183516	860.2146344556694	802.8185509247738	-143.4973242605699	858.7572104807628	780.7834457012733	-142.17740456879176	856.4903930758521	771.049655663941	-140.46417249983935	854.3624364943503	767.9679617035531	-138.96916432044358	852.067819695906	767.8821021798977	-137.4175808932574	883.7974347400327	1218.8125042317592	-109.78149965703392	855.84039511422	1229.6188288455048	-5.374105901446349	908.5694920081592	1030.5832515818993	-28.613310823591128	883.0432853089029	860.145471547909	-100.26671223797545	882.3959496231956	867.6882867307187	-106.80839091208694	887.1974663486067	857.2064183177367	-115.78358683053602	890.4311080944473	846.6614494995945	-121.99176904781643	893.0326279915679	835.0942307620227	-127.13119915260832	881.3317475841981	857.566336411353	-107.11238850362848	880.9494654049681	838.0359789264193	-118.04671904064217	883.9416233462815	820.0654319607426	-126.430922532015	887.7096614952278	810.6484451851786	-131.25462962186768	892.115344255798	804.0380266350257	-134.98499783812738	881.2003366549174	849.2110063263103	-106.65400328037838	880.7554627958115	825.6435432066587	-117.07086998919388	884.0084721187923	804.9894975868324	-126.12471329377072	888.5487096490284	793.1270008824473	-131.89876691293392	893.3665179590765	785.6503111235075	-135.95830262693147	881.0833812592042	843.8257119415498	-106.0451657182222	880.4840271967324	818.0863943599006	-114.83476487575244	883.3081452271435	799.0535101463703	-122.61270496861844	887.6816070065779	787.0638104809319	-128.1219823491961	892.2087528164834	779.7744494011207	-131.91042707791797	881.2265452384061	838.0321276419239	-105.07368321485013	880.6512740443892	810.911129296673	-112.52003028037076	882.8980826740645	794.1743274909801	-118.53306375909995	886.0810214752365	784.7053264403971	-122.44743692788161	890.0872618826639	777.8316726101162	-125.74346043506932
273	1.133	1198.941	914.58397	126.699	1245.1298234820197	887.5641684360235	51.09751884700219	1147.995311107023	493.32280594072313	-51.840924289828116	1142.613143546302	102.21844133108407	-129.82608063204665	991.5168205667321	25.297040573158487	-41.55787063462084	1166.0031890700802	915.2112179525101	214.34236364223412	1074.6072365695088	512.5363809451777	284.2841941464781	993.6253520581997	87.18275880616591	360.8615066844787	873.0042789819837	4.0599514056182	238.06788555889221	1137.415345150582	1033.5124104752902	76.38971443661192	1077.5203106282192	1089.4678999035702	24.261377465774775	1012.0758688509923	1140.9047669343865	-33.256856599300654	945.3927751193788	1179.4315563618143	-92.51436285256821	872.9793204978475	1220.958727044934	-154.24100863521525	805.6188716068409	1259.4873036045378	-208.00260891508418	670.7087413291554	1341.4227283738744	-227.44958727809342	910.3968955818239	1195.8904848260388	-156.6697164957111	928.44816680296	1127.0717266315166	-241.3091324084728	922.770285157822	944.2412859923824	-127.36913004300469	859.2721448863327	822.372602921216	-144.2727707189134	857.3043802104461	834.3591159224062	-142.31503345445816	853.2638487171739	835.8572869779096	-138.9020897518983	850.5782054422808	833.4855177861609	-136.6217940100526	848.4489412063647	828.5867683624087	-134.80334071031996	857.8058623780832	823.2842224057744	-142.62931870717975	855.0763215351247	811.7180166489717	-139.83417701771955	851.9879624753269	803.3083585330312	-137.09815205913952	849.5227595701671	801.5614540434536	-135.10136153204814	847.1145738567529	802.4638471196968	-133.24907201874444	858.1929623569579	814.3811531393794	-142.95143080901843	855.7403788025267	798.2842639295259	-140.39957512972163	852.4288062151734	787.9699730321811	-137.46461395914216	849.4826785198601	785.3164740017592	-135.07981889001158	846.8613152170979	786.0384632495127	-133.06488488309995	858.5484763504384	808.3653373688911	-143.2584247885663	856.695247737026	788.6557983275395	-141.26166583989874	853.8723391175988	778.5286031738176	-138.75917144113356	851.0642696972004	775.3651735137603	-136.48839010998006	848.6155043237505	775.7578452350987	-134.60784567055455	858.9398795588486	801.9319914489262	-143.629381936134	857.522018568318	779.8143104698901	-142.05296422185847	855.3685421094306	770.0167528837823	-140.1444931765205	853.3720851548976	766.8927542343149	-138.53434224820188	851.2326693944285	766.770642943146	-136.89505593714347	883.8812109048238	1218.904926043077	-109.80742601477989	856.1483625575416	1230.3123566835568	-5.363984613438763	908.2521462585162	1030.896408493448	-27.270694193514956	881.7746979205143	859.9038123866961	-97.72451804814439	881.3391840036917	867.6569419888611	-104.42881719838633	886.1269144317139	857.2760415941656	-113.18991268022684	889.2874678652585	846.7649788137886	-119.21897358101388	891.7737753600848	835.1948658020932	-124.18342490435555	880.0711045122122	857.425739394716	-104.67101326311041	879.4473408369886	837.90623061799	-115.5146852053204	882.2490174281073	819.9326733536637	-123.67118070491824	885.9567503247905	810.5368628535427	-128.29443634045154	890.3517153905843	803.9595010180861	-131.8191861162689	879.7744081304007	848.9704923619527	-104.12636140489121	879.0046140433851	825.3595635649156	-114.40817954383792	882.0287100252754	804.6890160208088	-123.20225734012011	886.486079418975	792.845699625282	-128.7290568904472	891.2872606747833	785.4021011893653	-132.56096685065143	879.546606007751	843.514194620863	-103.4603443040905	878.5591388354142	817.6739210492651	-112.08354333996245	881.1627277735754	798.6131992303433	-119.62372008411324	885.4451123709975	786.6348616810872	-124.88848668936839	889.9513319174694	779.3732298179066	-128.46005360420168	879.5708473456134	837.6394922434949	-102.41410805326048	878.5654419425629	810.3754537557998	-109.66661947251347	880.604580343964	793.5958019662132	-115.47226396746674	883.7060516582924	784.1251494579788	-119.20007622142873	887.6851021968064	777.2703307331948	-122.29924358804784
